<?xml version="1.0" standalone="no"?>
<!DOCTYPE svg PUBLIC "-//W3C//DTD SVG 1.1//EN" "http://www.w3.org/Graphics/SVG/1.1/DTD/svg11.dtd">
<svg style="left: 0px; top: 0px; width: 100%; height: 100%; display: block; min-width: 931px; min-height: 701px;" xmlns="http://www.w3.org/2000/svg" xmlns:xlink="http://www.w3.org/1999/xlink"><g><g></g><g><g style="visibility: visible;" transform="translate(0.5,0.5)"><ellipse cx="256.64" cy="50" rx="65" ry="50" fill="none" stroke="white" pointer-events="stroke" visibility="hidden" stroke-width="9"></ellipse><ellipse cx="256.64" cy="50" rx="65" ry="50" fill="none" stroke="black" pointer-events="all"></ellipse></g><g style=""><g fill="black" font-family="Arial,Helvetica" direction="" text-anchor="middle" font-size="11px"><rect fill="none" stroke="none" x="256" y="51" width="2" height="1" stroke-width="1" transform="translate(0.5, 0.5)"></rect><text x="256.64" y="48">King Arthur</text><text x="256.64" y="61">(trad.)</text></g></g><g style="visibility: visible;" transform="translate(0.5,0.5)"><ellipse cx="351.64" cy="250" rx="65" ry="50" fill="none" stroke="white" pointer-events="stroke" visibility="hidden" stroke-width="9"></ellipse><ellipse cx="351.64" cy="250" rx="65" ry="50" fill="none" stroke="black" pointer-events="all"></ellipse></g><g style=""><g fill="black" font-family="Arial,Helvetica" direction="" text-anchor="middle" font-size="11px"><rect fill="none" stroke="none" x="351" y="251" width="2" height="1" stroke-width="1" transform="translate(0.5, 0.5)"></rect><text x="351.64" y="254.5">Lord Dunsany</text></g></g><g style="visibility: visible;" transform="translate(0.5,0.5)"><ellipse cx="540.26" cy="450" rx="65" ry="50" fill="none" stroke="white" pointer-events="stroke" visibility="hidden" stroke-width="9"></ellipse><ellipse cx="540.26" cy="450" rx="65" ry="50" fill="none" stroke="black" pointer-events="all"></ellipse></g><g style=""><g fill="black" font-family="Arial,Helvetica" direction="" text-anchor="middle" font-size="11px"><rect fill="none" stroke="none" x="540" y="451" width="2" height="1" stroke-width="1" transform="translate(0.5, 0.5)"></rect><text x="540.26" y="448">Robert E. Howard</text><text x="540.26" y="461">(The Shadow Kingdom)</text></g></g><g style="visibility: visible;" transform="translate(0.5,0.5)"><ellipse cx="380.26" cy="450" rx="65" ry="50" fill="none" stroke="white" pointer-events="stroke" visibility="hidden" stroke-width="9"></ellipse><ellipse cx="380.26" cy="450" rx="65" ry="50" fill="none" stroke="black" pointer-events="all"></ellipse></g><g style=""><g fill="black" font-family="Arial,Helvetica" direction="" text-anchor="middle" font-size="11px"><rect fill="none" stroke="none" x="380" y="451" width="2" height="1" stroke-width="1" transform="translate(0.5, 0.5)"></rect><text x="380.26" y="448">J.R.R. Tolkien</text><text x="380.26" y="461">(The Lord of the Rings)</text></g></g><g style="visibility: visible;" transform="translate(0.5,0.5)"><ellipse cx="385" cy="650" rx="65" ry="50" fill="none" stroke="white" pointer-events="stroke" visibility="hidden" stroke-width="9"></ellipse><ellipse cx="385" cy="650" rx="65" ry="50" fill="none" stroke="black" pointer-events="all"></ellipse></g><g style=""><g fill="black" font-family="Arial,Helvetica" direction="" text-anchor="middle" font-size="11px"><rect fill="none" stroke="none" x="385" y="651" width="2" height="1" stroke-width="1" transform="translate(0.5, 0.5)"></rect><text x="385" y="648">Glen Cook</text><text x="385" y="661">(The Black Company)</text></g></g><g style="visibility: visible;" transform="translate(0.5,0.5)"><ellipse cx="705" cy="450" rx="65" ry="50" fill="none" stroke="white" pointer-events="stroke" visibility="hidden" stroke-width="9"></ellipse><ellipse cx="705" cy="450" rx="65" ry="50" fill="none" stroke="black" pointer-events="all"></ellipse></g><g style=""><g fill="black" font-family="Arial,Helvetica" direction="" text-anchor="middle" font-size="11px"><rect fill="none" stroke="none" x="705" y="451" width="2" height="1" stroke-width="1" transform="translate(0.5, 0.5)"></rect><text x="705" y="448">Poul Anderson</text><text x="705" y="461">(The Broken Sword)</text></g></g><g style="visibility: visible;" transform="translate(0.5,0.5)"><ellipse cx="865" cy="650" rx="65" ry="50" fill="none" stroke="white" pointer-events="stroke" visibility="hidden" stroke-width="9"></ellipse><ellipse cx="865" cy="650" rx="65" ry="50" fill="none" stroke="black" pointer-events="all"></ellipse></g><g style=""><g fill="black" font-family="Arial,Helvetica" direction="" text-anchor="middle" font-size="11px"><rect fill="none" stroke="none" x="865" y="651" width="2" height="1" stroke-width="1" transform="translate(0.5, 0.5)"></rect><text x="865" y="648">Moorcock</text><text x="865" y="661">(Elric Novels)</text></g></g><g style="visibility: visible;" transform="translate(0.5,0.5)"><ellipse cx="705" cy="650" rx="65" ry="50" fill="none" stroke="white" pointer-events="stroke" visibility="hidden" stroke-width="9"></ellipse><ellipse cx="705" cy="650" rx="65" ry="50" fill="none" stroke="black" pointer-events="all"></ellipse></g><g style=""><g fill="black" font-family="Arial,Helvetica" direction="" text-anchor="middle" font-size="11px"><rect fill="none" stroke="none" x="705" y="651" width="2" height="1" stroke-width="1" transform="translate(0.5, 0.5)"></rect><text x="705" y="648">C.J. Cherryh</text><text x="705" y="661">(Morgaine Trilogy)</text></g></g><g style="visibility: visible;" transform="translate(0.5,0.5)"><ellipse cx="545" cy="650" rx="65" ry="50" fill="none" stroke="white" pointer-events="stroke" visibility="hidden" stroke-width="9"></ellipse><ellipse cx="545" cy="650" rx="65" ry="50" fill="none" stroke="black" pointer-events="all"></ellipse></g><g style=""><g fill="black" font-family="Arial,Helvetica" direction="" text-anchor="middle" font-size="11px"><rect fill="none" stroke="none" x="545" y="651" width="2" height="1" stroke-width="1" transform="translate(0.5, 0.5)"></rect><text x="545" y="648">Ursula K. Le Guin</text><text x="545" y="661">(Earthsea)</text></g></g><g style="visibility: visible;" transform="translate(0.5,0.5)"><ellipse cx="65" cy="650" rx="65" ry="50" fill="none" stroke="white" pointer-events="stroke" visibility="hidden" stroke-width="9"></ellipse><ellipse cx="65" cy="650" rx="65" ry="50" fill="none" stroke="black" pointer-events="all"></ellipse></g><g style=""><g fill="black" font-family="Arial,Helvetica" direction="" text-anchor="middle" font-size="11px"><rect fill="none" stroke="none" x="65" y="651" width="2" height="1" stroke-width="1" transform="translate(0.5, 0.5)"></rect><text x="65" y="648">C.S. Lewis</text><text x="65" y="661">(Narnia)</text></g></g><g style="visibility: visible;" transform="translate(0.5,0.5)"><ellipse cx="225" cy="650" rx="65" ry="50" fill="none" stroke="white" pointer-events="stroke" visibility="hidden" stroke-width="9"></ellipse><ellipse cx="225" cy="650" rx="65" ry="50" fill="none" stroke="black" pointer-events="all"></ellipse></g><g style=""><g fill="black" font-family="Arial,Helvetica" direction="" text-anchor="middle" font-size="11px"><rect fill="none" stroke="none" x="225" y="651" width="2" height="1" stroke-width="1" transform="translate(0.5, 0.5)"></rect><text x="225" y="648">Andre Norton</text><text x="225" y="661">(Witch World)</text></g></g><g style="visibility: visible;" transform="translate(0.5,0.5)"><path d="M 278.77 97.01 L 326.59 197.29" fill="none" stroke="white" stroke-miterlimit="10" pointer-events="stroke" visibility="hidden" stroke-width="9"></path><path d="M 278.77 97.01 L 326.59 197.29" fill="none" stroke="black" stroke-miterlimit="10" pointer-events="stroke"></path><path d="M 328.85 202.03 L 322.68 197.22 L 326.59 197.29 L 329 194.2 Z" fill="black" stroke="black" stroke-miterlimit="10" pointer-events="all"></path></g><g style="visibility: visible;" transform="translate(0.5,0.5)"><path d="M 358.6 299.71 L 372.38 393.99" fill="none" stroke="white" stroke-miterlimit="10" pointer-events="stroke" visibility="hidden" stroke-width="9"></path><path d="M 358.6 299.71 L 372.38 393.99" fill="none" stroke="black" stroke-miterlimit="10" pointer-events="stroke"></path><path d="M 373.14 399.18 L 368.66 392.76 L 372.38 393.99 L 375.59 391.75 Z" fill="black" stroke="black" stroke-miterlimit="10" pointer-events="all"></path></g><g style="visibility: visible;" transform="translate(0.5,0.5)"><path d="M 389.82 290.47 L 497.8 404.85" fill="none" stroke="white" stroke-miterlimit="10" pointer-events="stroke" visibility="hidden" stroke-width="9"></path><path d="M 389.82 290.47 L 497.8 404.85" fill="none" stroke="black" stroke-miterlimit="10" pointer-events="stroke"></path><path d="M 501.41 408.67 L 494.06 405.98 L 497.8 404.85 L 499.15 401.18 Z" fill="black" stroke="black" stroke-miterlimit="10" pointer-events="all"></path></g><g style="visibility: visible;" transform="translate(0.5,0.5)"><path d="M 381.26 499.99 L 383.83 593.64" fill="none" stroke="white" stroke-miterlimit="10" pointer-events="stroke" visibility="hidden" stroke-width="9"></path><path d="M 381.26 499.99 L 383.83 593.64" fill="none" stroke="black" stroke-miterlimit="10" pointer-events="stroke"></path><path d="M 383.97 598.89 L 380.28 591.99 L 383.83 593.64 L 387.28 591.8 Z" fill="black" stroke="black" stroke-miterlimit="10" pointer-events="all"></path></g><g style="visibility: visible;" transform="translate(0.5,0.5)"><path d="M 507.11 493.01 L 422.2 602.03" fill="none" stroke="white" stroke-miterlimit="10" pointer-events="stroke" visibility="hidden" stroke-width="9"></path><path d="M 507.11 493.01 L 422.2 602.03" fill="none" stroke="black" stroke-miterlimit="10" pointer-events="stroke"></path><path d="M 418.97 606.17 L 420.51 598.5 L 422.2 602.03 L 426.03 602.8 Z" fill="black" stroke="black" stroke-miterlimit="10" pointer-events="all"></path></g><g style="visibility: visible;" transform="translate(0.5,0.5)"><path d="M 738.95 492.64 L 826.95 602.45" fill="none" stroke="white" stroke-miterlimit="10" pointer-events="stroke" visibility="hidden" stroke-width="9"></path><path d="M 738.95 492.64 L 826.95 602.45" fill="none" stroke="black" stroke-miterlimit="10" pointer-events="stroke"></path><path d="M 830.23 606.54 L 823.13 603.27 L 826.95 602.45 L 828.59 598.89 Z" fill="black" stroke="black" stroke-miterlimit="10" pointer-events="all"></path></g><g style="visibility: visible;" transform="translate(0.5,0.5)"><path d="M 705 500 L 705 593.63" fill="none" stroke="white" stroke-miterlimit="10" pointer-events="stroke" visibility="hidden" stroke-width="9"></path><path d="M 705 500 L 705 593.63" fill="none" stroke="black" stroke-miterlimit="10" pointer-events="stroke"></path><path d="M 705 598.88 L 701.5 591.88 L 705 593.63 L 708.5 591.88 Z" fill="black" stroke="black" stroke-miterlimit="10" pointer-events="all"></path></g><g style="visibility: visible;" transform="translate(0.5,0.5)"><path d="M 431.09 481.17 L 648.88 615.37" fill="none" stroke="white" stroke-miterlimit="10" pointer-events="stroke" visibility="hidden" stroke-width="9"></path><path d="M 431.09 481.17 L 648.88 615.37" fill="none" stroke="black" stroke-miterlimit="10" pointer-events="stroke"></path><path d="M 653.35 618.12 L 645.56 617.43 L 648.88 615.37 L 649.23 611.47 Z" fill="black" stroke="black" stroke-miterlimit="10" pointer-events="all"></path></g><g style="visibility: visible;" transform="translate(0.5,0.5)"><path d="M 671.05 492.64 L 583.05 602.45" fill="none" stroke="white" stroke-miterlimit="10" pointer-events="stroke" visibility="hidden" stroke-width="9"></path><path d="M 671.05 492.64 L 583.05 602.45" fill="none" stroke="black" stroke-miterlimit="10" pointer-events="stroke"></path><path d="M 579.77 606.54 L 581.41 598.89 L 583.05 602.45 L 586.87 603.27 Z" fill="black" stroke="black" stroke-miterlimit="10" pointer-events="all"></path></g><g style="visibility: visible;" transform="translate(0.5,0.5)"><path d="M 415.18 492.17 L 506.27 602.79" fill="none" stroke="white" stroke-miterlimit="10" pointer-events="stroke" visibility="hidden" stroke-width="9"></path><path d="M 415.18 492.17 L 506.27 602.79" fill="none" stroke="black" stroke-miterlimit="10" pointer-events="stroke"></path><path d="M 509.61 606.85 L 502.46 603.67 L 506.27 602.79 L 507.86 599.22 Z" fill="black" stroke="black" stroke-miterlimit="10" pointer-events="all"></path></g><g style="visibility: visible;" transform="translate(0.5,0.5)"><path d="M 241.13 98.56 L 82.4 595.37" fill="none" stroke="white" stroke-miterlimit="10" pointer-events="stroke" visibility="hidden" stroke-width="9"></path><path d="M 241.13 98.56 L 82.4 595.37" fill="none" stroke="black" stroke-miterlimit="10" pointer-events="stroke"></path><path d="M 80.8 600.37 L 79.6 592.64 L 82.4 595.37 L 86.26 594.77 Z" fill="black" stroke="black" stroke-miterlimit="10" pointer-events="all"></path></g><g style="visibility: visible;" transform="translate(0.5,0.5)"><path d="M 320.27 293.79 L 100.03 601.01" fill="none" stroke="white" stroke-miterlimit="10" pointer-events="stroke" visibility="hidden" stroke-width="9"></path><path d="M 320.27 293.79 L 100.03 601.01" fill="none" stroke="black" stroke-miterlimit="10" pointer-events="stroke"></path><path d="M 96.98 605.28 L 98.21 597.55 L 100.03 601.01 L 103.9 601.63 Z" fill="black" stroke="black" stroke-miterlimit="10" pointer-events="all"></path></g><g style="visibility: visible;" transform="translate(0.5,0.5)"><path d="M 330.1 481.8 L 120.51 614.76" fill="none" stroke="white" stroke-miterlimit="10" pointer-events="stroke" visibility="hidden" stroke-width="9"></path><path d="M 330.1 481.8 L 120.51 614.76" fill="none" stroke="black" stroke-miterlimit="10" pointer-events="stroke"></path><path d="M 116.07 617.57 L 120.11 610.87 L 120.51 614.76 L 123.86 616.78 Z" fill="black" stroke="black" stroke-miterlimit="10" pointer-events="all"></path></g><g style="visibility: visible;" transform="translate(0.5,0.5)"><path d="M 347.11 493.01 L 262.2 602.03" fill="none" stroke="white" stroke-miterlimit="10" pointer-events="stroke" visibility="hidden" stroke-width="9"></path><path d="M 347.11 493.01 L 262.2 602.03" fill="none" stroke="black" stroke-miterlimit="10" pointer-events="stroke"></path><path d="M 258.97 606.17 L 260.51 598.5 L 262.2 602.03 L 266.03 602.8 Z" fill="black" stroke="black" stroke-miterlimit="10" pointer-events="all"></path></g><g style="visibility: visible;" transform="translate(0.5,0.5)"><path d="M 254.01 99.96 L 227.92 593.68" fill="none" stroke="white" stroke-miterlimit="10" pointer-events="stroke" visibility="hidden" stroke-width="9"></path><path d="M 254.01 99.96 L 227.92 593.68" fill="none" stroke="black" stroke-miterlimit="10" pointer-events="stroke"></path><path d="M 227.64 598.92 L 224.51 591.75 L 227.92 593.68 L 231.5 592.12 Z" fill="black" stroke="black" stroke-miterlimit="10" pointer-events="all"></path></g><g style="visibility: visible;" transform="translate(0.5,0.5)"><path d="M 591.09 481.17 L 808.88 615.37" fill="none" stroke="white" stroke-miterlimit="10" pointer-events="stroke" visibility="hidden" stroke-width="9"></path><path d="M 591.09 481.17 L 808.88 615.37" fill="none" stroke="black" stroke-miterlimit="10" pointer-events="stroke"></path><path d="M 813.35 618.12 L 805.56 617.43 L 808.88 615.37 L 809.23 611.47 Z" fill="black" stroke="black" stroke-miterlimit="10" pointer-events="all"></path></g></g><g></g><g></g></g></svg>